<svg width="322" height="466" viewBox="0 0 322 466" fill="none" xmlns="http://www.w3.org/2000/svg">
<path d="M308.986 334.314L308.976 334.318C266.544 275.82 233.663 254.303 233.663 254.303L160.971 245.26L88.2777 254.303C88.2777 254.303 55.3883 275.827 12.9462 334.345L12.9373 334.341C12.9373 334.341 11.8595 335.633 10.3428 337.948C10.3212 337.979 10.2996 338.008 10.2779 338.038L10.2833 338.042C6.06401 344.504 -1.53678 358.949 0.273963 377.133C0.273963 377.133 3.59591 369.928 10.3158 362.24C8.77926 368.191 7.92713 375.106 8.68359 382.711C8.68359 382.711 13.2531 372.768 22.5675 363.775C19.9875 370.84 18.0754 379.843 19.0992 390.12C19.0992 390.12 25.8243 375.429 39.6612 365.617C39.2043 378.286 33.5372 383.823 33.5372 383.823C54.7238 380.501 58.5386 365.264 58.5639 365.161C60.4615 360.631 68.0389 343.957 79.4636 336.847C87.1403 332.069 96.4707 339.838 93.2174 348.263C86.0425 366.845 73.782 428.811 71.9639 466H124.657C124.657 466 130.844 415.288 160.971 415.288C191.097 415.288 197.284 466 197.284 466H249.977C248.159 428.811 235.898 366.845 228.723 348.263C225.47 339.838 234.8 332.069 242.477 336.847C254.445 344.296 262.187 362.228 263.604 365.705C264.496 368.427 269.562 380.859 288.465 383.823C288.465 383.823 282.796 378.286 282.341 365.617C296.176 375.429 302.903 390.12 302.903 390.12C303.927 379.843 302.015 370.838 299.433 363.775C308.749 372.766 313.317 382.711 313.317 382.711C314.075 375.106 313.221 368.191 311.686 362.24C318.404 369.928 321.728 377.133 321.728 377.133C324.202 352.275 308.986 334.314 308.986 334.314" fill="#282828"/>
<path d="M206.454 292.922C206.454 338.029 186.251 374.598 161.329 374.598C136.409 374.598 116.206 338.029 116.206 292.922C116.206 247.815 136.409 211.246 161.329 211.246C186.251 211.246 206.454 247.815 206.454 292.922Z" fill="white"/>
<path d="M161.287 289.408C242.277 289.408 307.933 228.065 307.933 152.395C307.933 76.7246 242.277 15.3817 161.287 15.3817C80.2962 15.3817 14.6404 76.7246 14.6404 152.395C14.6404 228.065 80.2962 289.408 161.287 289.408Z" fill="#282828"/>
<path fill-rule="evenodd" clip-rule="evenodd" d="M160.928 113.229C236.364 113.229 297.608 77.7322 297.608 153.012C297.608 228.292 236.364 289.41 160.928 289.41C85.4923 289.41 24.248 228.292 24.248 153.012C24.248 77.7322 85.4923 113.229 160.928 113.229V113.229Z" fill="#282828"/>
<path fill-rule="evenodd" clip-rule="evenodd" d="M18.6061 161.025C32.0879 156.756 47.664 167.855 53.3672 185.793C59.0705 203.732 52.7551 221.762 39.2733 226.03C25.7912 230.299 10.2154 219.201 4.51214 201.262C-1.19109 183.323 5.124 165.294 18.6061 161.025V161.025Z" fill="#282828"/>
<path fill-rule="evenodd" clip-rule="evenodd" d="M305.292 161.219C291.81 156.95 276.234 168.049 270.531 185.987C264.827 203.926 271.143 221.956 284.625 226.224C298.106 230.493 313.682 219.394 319.386 201.456C325.089 183.517 318.774 165.487 305.292 161.219Z" fill="#282828"/>
<path d="M119.13 187.137C119.13 200.424 108.336 211.195 95.022 211.195C81.7069 211.195 70.9131 200.424 70.9131 187.137C70.9131 173.85 81.7069 163.079 95.022 163.079C108.336 163.079 119.13 173.85 119.13 187.137Z" fill="#808080"/>
<path d="M115.31 187.742C115.31 199.094 106.088 208.296 94.7133 208.296C83.3376 208.296 74.116 199.094 74.116 187.742C74.116 176.39 83.3376 167.188 94.7133 167.188C106.088 167.188 115.31 176.39 115.31 187.742Z" fill="white"/>
<path fill-rule="evenodd" clip-rule="evenodd" d="M77.6605 176.715C72.5313 198.417 93.0069 205.134 112.305 197.195C111.605 177.757 96.0013 175.846 77.6605 176.715Z" fill="black"/>
<path d="M84.8184 187.864C86.1813 187.864 87.286 186.762 87.286 185.402C87.286 184.042 86.1813 182.939 84.8184 182.939C83.4556 182.939 82.3508 184.042 82.3508 185.402C82.3508 186.762 83.4556 187.864 84.8184 187.864Z" fill="white"/>
<path d="M206.792 187.137C206.792 200.424 217.586 211.195 230.9 211.195C244.215 211.195 255.009 200.424 255.009 187.137C255.009 173.85 244.215 163.079 230.9 163.079C217.586 163.079 206.792 173.85 206.792 187.137Z" fill="#808080"/>
<path d="M210.452 187.742C210.452 199.094 219.674 208.296 231.049 208.296C242.424 208.296 251.646 199.094 251.646 187.742C251.646 176.39 242.424 167.188 231.049 167.188C219.674 167.188 210.452 176.39 210.452 187.742Z" fill="white"/>
<path fill-rule="evenodd" clip-rule="evenodd" d="M248.3 176.715C253.429 198.417 232.954 205.134 213.655 197.195C214.356 177.757 229.959 175.846 248.3 176.715Z" fill="black"/>
<path d="M241.285 187.864C242.648 187.864 243.753 186.762 243.753 185.402C243.753 184.042 242.648 182.939 241.285 182.939C239.923 182.939 238.818 184.042 238.818 185.402C238.818 186.762 239.923 187.864 241.285 187.864Z" fill="white"/>
<path fill-rule="evenodd" clip-rule="evenodd" d="M52.2643 111.798C46.7625 107.565 53.2246 100.178 68.4348 90.4859V111.798H52.2643V111.798Z" fill="#282828"/>
<path fill-rule="evenodd" clip-rule="evenodd" d="M59.4756 117.275C59.5083 108.663 64.4524 100.75 73.7131 93.4533C69.706 103.597 74.82 113.041 87.9507 121.87L59.4756 117.275V117.275Z" fill="#282828"/>
<path fill-rule="evenodd" clip-rule="evenodd" d="M146.465 25.3228C150.787 18.3827 157.43 11.9616 166.226 6.02228C163.215 12.2401 162.477 18.4583 163.906 24.6786C175.781 24.8516 187.291 26.5386 198.251 29.5548C251.011 44.0741 291.022 89.3917 297.608 144.871C287.994 93.2553 231.062 122.7 162.358 122.7C161.881 122.7 161.404 122.698 160.928 122.695C160.452 122.698 159.975 122.7 159.498 122.7C90.7942 122.7 33.862 93.2553 24.248 144.871C30.7933 89.7411 70.3424 44.6454 122.604 29.8331C123.446 22.058 127.579 13.642 136.239 7.1588C135.634 14.8072 137.652 21.1598 143.493 25.647C144.481 25.5285 145.471 25.4205 146.465 25.3228Z" fill="white"/>
<path fill-rule="evenodd" clip-rule="evenodd" d="M149.012 29.409L146.889 29.6176C145.925 29.7123 144.966 29.8169 144.01 29.9317L142.256 30.1422L140.856 29.0668C136.423 25.662 133.829 21.391 132.629 16.6184C129.15 21.044 127.385 25.8433 126.903 30.2965L126.59 33.1895L123.785 33.9844C82.2908 45.7451 49.0719 77.2262 34.9605 117.602C35.8094 116.996 36.6905 116.428 37.6038 115.899C46.4558 110.77 57.6444 109.654 69.8782 110.117C80.0466 110.502 91.5078 112.018 103.672 113.627C106.182 113.959 108.722 114.295 111.287 114.625C126.401 116.575 142.613 118.384 159.498 118.384C159.968 118.384 160.434 118.383 160.899 118.38L160.928 118.38L160.957 118.38C161.421 118.383 161.888 118.384 162.358 118.384C179.243 118.384 195.455 116.575 210.569 114.625C213.134 114.295 215.674 113.959 218.184 113.627C230.348 112.018 241.81 110.502 251.978 110.117C264.212 109.654 275.4 110.77 284.252 115.899C285.166 116.428 286.047 116.996 286.896 117.602C272.675 76.9141 239.05 45.259 197.102 33.715C186.492 30.7954 175.347 29.1613 163.843 28.9937L160.449 28.9442L159.691 25.6428C159.046 22.8327 158.785 20.0249 158.908 17.2284C155.264 20.5967 152.346 24.0563 150.138 27.6007L149.012 29.409ZM159.905 10.6725C154.185 15.2786 149.682 20.1569 146.465 25.3228C145.471 25.4205 144.481 25.5285 143.493 25.647C139.126 22.2926 136.897 17.8958 136.302 12.6944C136.101 10.9379 136.087 9.08965 136.239 7.1588C134.617 8.37363 133.153 9.65633 131.84 10.99C126.146 16.7735 123.288 23.5149 122.604 29.8331C77.1791 42.7077 41.3582 78.4609 28.4657 123.796C26.5253 130.619 25.1043 137.659 24.248 144.871C25.7911 136.586 28.5532 130.39 32.3873 125.825C45.442 110.282 70.9246 113.651 103.034 117.896C120.248 120.172 139.368 122.7 159.498 122.7C159.975 122.7 160.452 122.698 160.928 122.695C161.404 122.698 161.881 122.7 162.358 122.7C182.488 122.7 201.608 120.172 218.823 117.896C250.932 113.651 276.414 110.282 289.469 125.825C293.303 130.39 296.065 136.586 297.608 144.871C296.752 137.659 295.331 130.619 293.391 123.796C280.404 78.1303 244.153 42.1867 198.251 29.5548C187.291 26.5386 175.781 24.8516 163.906 24.6786C163.021 20.8259 162.967 16.9741 163.77 13.1227C164.263 10.7558 165.08 8.38901 166.226 6.02228C163.978 7.54065 161.87 9.09052 159.905 10.6725Z" fill="#282828"/>
<path fill-rule="evenodd" clip-rule="evenodd" d="M134.964 136.665C134.997 121.207 139.941 107.007 149.202 93.9101C145.195 112.116 150.309 129.065 163.439 144.91L134.964 136.665Z" fill="#282828"/>
<path fill-rule="evenodd" clip-rule="evenodd" d="M244.418 122.108C244.385 111.748 239.441 102.231 230.18 93.4533C234.187 105.655 229.074 117.014 215.943 127.634L244.418 122.108Z" fill="#282828"/>
<path fill-rule="evenodd" clip-rule="evenodd" d="M118.914 121.741C118.881 113.128 113.937 105.216 104.677 97.9189C108.684 108.063 103.57 117.507 90.4392 126.335L118.914 121.741V121.741Z" fill="#282828"/>
<path fill-rule="evenodd" clip-rule="evenodd" d="M261.933 127.439C263.283 117.935 258.689 108.353 248.87 98.7038C251.991 110.584 244.396 120.115 227.38 127.58L261.933 127.439Z" fill="#282828"/>
<path fill-rule="evenodd" clip-rule="evenodd" d="M139.334 118.792C139.291 109.103 132.864 100.202 120.825 91.9925C126.035 103.405 119.386 114.029 102.316 123.961L139.334 118.792Z" fill="#282828"/>
<path fill-rule="evenodd" clip-rule="evenodd" d="M293.067 134.453C293.034 125.84 273.853 106.23 264.592 98.9324C271.177 109.076 276.442 131.308 260.321 140.136L293.067 134.453Z" fill="#282828"/>
<path d="M162.152 260.487C179.694 260.487 193.914 246.296 193.914 228.79C193.914 211.284 179.694 197.093 162.152 197.093C144.61 197.093 130.389 211.284 130.389 228.79C130.389 246.296 144.61 260.487 162.152 260.487Z" fill="white"/>
<path d="M121.697 30.7334C121.963 20.0014 128.588 11.7321 141.004 1C137.525 10.0804 137.418 19.1608 146.094 28.2412L163.299 2.51545L166.526 25.589" stroke="#282828" stroke-width="0.0105459" stroke-miterlimit="1.5" stroke-linecap="round" stroke-linejoin="round"/>
<path d="M184.672 230.838C184.672 224.678 178.734 238.512 172.66 239.269C168.516 239.784 181.847 229.078 161.877 228.828C143.045 228.592 155.06 238.634 151.078 238.571C144.934 238.472 139.082 224.552 139.082 230.838C139.082 241.197 149.287 253.949 161.877 253.949C174.466 253.949 184.672 241.197 184.672 230.838Z" fill="#7D6147"/>
</svg>
