<svg width="322" height="466" viewBox="0 0 322 466" fill="none" xmlns="http://www.w3.org/2000/svg">
<path fill-rule="evenodd" clip-rule="evenodd" d="M111.432 41.5598C120.81 25.1881 132.989 10.3902 153.017 0L155.66 15.5349C160.025 9.52169 165.613 5.1102 171.772 1.4478C164.254 32.0754 180.566 39.4898 199.308 41.6997L111.432 41.5598Z" fill="#282828" stroke="black" stroke-width="0.000477137" stroke-miterlimit="1.5" stroke-linecap="round" stroke-linejoin="round"/>
<path d="M308.985 338.513L308.976 338.516C266.544 281.884 233.663 261.054 233.663 261.054L160.971 252.299L88.2779 261.054C88.2779 261.054 55.3883 281.892 12.9463 338.543L12.9369 338.54C12.9369 338.54 11.8595 339.79 10.3428 342.031C10.321 342.061 10.2991 342.089 10.2782 342.118L10.283 342.122C6.06395 348.379 -1.53697 362.362 0.274034 379.967C0.274034 379.967 3.59611 372.991 10.3153 365.549C8.77951 371.31 7.92715 378.004 8.68364 385.366C8.68364 385.366 13.2529 375.74 22.5671 367.035C19.9873 373.875 18.0756 382.59 19.0988 392.539C19.0988 392.539 25.8246 378.317 39.6606 368.818C39.2041 381.083 33.5366 386.443 33.5366 386.443C54.7239 383.226 58.5386 368.476 58.5642 368.376C60.4616 363.991 68.0388 347.849 79.463 340.965C87.1398 336.34 96.4701 343.861 93.2173 352.017C86.0426 370.007 73.7822 429.997 71.9636 466H124.657C124.657 466 130.844 416.905 160.971 416.905C191.096 416.905 197.284 466 197.284 466H249.977C248.158 429.997 235.898 370.007 228.723 352.017C225.469 343.861 234.801 336.34 242.477 340.965C254.445 348.176 262.187 365.537 263.604 368.903C264.496 371.539 269.562 383.573 288.465 386.443C288.465 386.443 282.795 381.083 282.341 368.818C296.176 378.317 302.902 392.539 302.902 392.539C303.926 382.59 302.014 373.873 299.432 367.035C308.748 375.738 313.317 385.366 313.317 385.366C314.075 378.004 313.221 371.31 311.686 365.549C318.404 372.991 321.728 379.967 321.728 379.967C324.202 355.901 308.985 338.513 308.985 338.513" fill="#282828"/>
<path d="M207.099 317.392C207.099 350.349 186.896 377.07 161.974 377.07C137.054 377.07 116.852 350.349 116.852 317.392C116.852 284.433 137.054 257.712 161.974 257.712C186.896 257.712 207.099 284.433 207.099 317.392" fill="#C4C0C0"/>
<path d="M161.508 295.823C242.498 295.823 308.154 235.41 308.154 160.885C308.154 86.3611 242.498 25.9473 161.508 25.9473C80.5172 25.9473 14.8615 86.3611 14.8615 160.885C14.8615 235.41 80.5172 295.823 161.508 295.823Z" fill="#282828"/>
<path fill-rule="evenodd" clip-rule="evenodd" d="M162.498 130.282C237.934 130.282 299.178 95.3226 299.178 169.462C299.178 243.601 237.934 303.794 162.498 303.794C87.0621 303.794 25.8181 243.601 25.8181 169.462C25.8181 95.3226 87.0621 130.282 162.498 130.282V130.282Z" fill="#282828"/>
<path fill-rule="evenodd" clip-rule="evenodd" d="M20.623 169.385C34.1049 165.182 49.6808 176.112 55.3834 193.78C61.0869 211.446 54.7721 229.203 41.2901 233.406C27.8082 237.611 12.2324 226.681 6.52882 209.013C0.825283 191.346 7.14103 173.59 20.623 169.385V169.385Z" fill="#282828"/>
<path fill-rule="evenodd" clip-rule="evenodd" d="M18.1684 184.813C22.5384 183.991 27.3943 190.041 29.0041 198.314C30.6148 206.587 28.3738 213.971 24.0039 214.792C19.6339 215.614 14.7789 209.564 13.1691 201.291C11.5584 193.019 13.7984 185.635 18.1684 184.813V184.813Z" fill="#121212"/>
<path fill-rule="evenodd" clip-rule="evenodd" d="M303.259 170.33C289.777 166.127 274.202 177.057 268.498 194.725C262.795 212.391 269.11 230.148 282.592 234.352C296.074 238.556 311.65 227.626 317.353 209.958C323.056 192.291 316.741 174.535 303.259 170.33V170.33Z" fill="#282828"/>
<path d="M119.027 195.072C119.027 208.158 108.233 218.765 94.9193 218.765C81.6044 218.765 70.8105 208.158 70.8105 195.072C70.8105 181.985 81.6044 171.378 94.9193 171.378C108.233 171.378 119.027 181.985 119.027 195.072Z" fill="white"/>
<path d="M115.443 195.73C115.443 206.91 106.221 215.973 94.8459 215.973C83.4701 215.973 74.249 206.91 74.249 195.73C74.249 184.551 83.4701 175.488 94.8459 175.488C106.221 175.488 115.443 184.551 115.443 195.73Z" fill="url(#paint0_radial)"/>
<path fill-rule="evenodd" clip-rule="evenodd" d="M79.5865 183.55C71.7331 204.109 91.1863 213.23 111.34 207.886C113.122 188.811 97.8893 184.994 79.5865 183.55Z" fill="black"/>
<path fill-rule="evenodd" clip-rule="evenodd" d="M85.9476 190.472C87.2983 190.642 88.2541 191.859 88.0813 193.186C87.9076 194.514 86.6709 195.453 85.3192 195.283C83.9686 195.112 83.0128 193.897 83.1855 192.569C83.3592 191.242 84.596 190.302 85.9476 190.472Z" fill="white"/>
<path d="M206.778 195.072C206.778 208.158 217.572 218.765 230.886 218.765C244.201 218.765 254.995 208.158 254.995 195.072C254.995 181.985 244.201 171.378 230.886 171.378C217.572 171.378 206.778 181.985 206.778 195.072Z" fill="white"/>
<path fill-rule="evenodd" clip-rule="evenodd" d="M52.3512 120.912C46.8489 116.743 53.3108 109.469 68.5212 99.9229V120.912H52.3512Z" fill="#282828"/>
<path fill-rule="evenodd" clip-rule="evenodd" d="M160.983 35.1442C161.301 35.1423 161.619 35.1404 161.938 35.1404C231.885 35.1404 289.63 86.8917 297.663 153.528C288.049 102.693 231.117 131.691 162.412 131.691C161.935 131.691 161.458 131.69 160.983 131.688C160.506 131.69 160.03 131.691 159.552 131.691C90.8489 131.691 33.916 102.693 24.3029 153.528C32.3357 86.8917 90.081 35.1404 160.027 35.1404C160.346 35.1404 160.665 35.1423 160.983 35.1442V35.1442Z" fill="#C4C0C0"/>
<path fill-rule="evenodd" clip-rule="evenodd" d="M59.4455 126.191C59.4778 117.708 64.422 109.916 73.683 102.73C69.6756 112.72 74.7897 122.02 87.9205 130.715L59.4455 126.191Z" fill="#282828"/>
<path fill-rule="evenodd" clip-rule="evenodd" d="M133.203 46.3138C129.916 35.7864 133.818 20.4111 149.018 11.1692C146.054 16.1059 153.405 33.1362 177.895 40.6317L133.203 46.3138Z" fill="#C4C0C0"/>
<path fill-rule="evenodd" clip-rule="evenodd" d="M143.181 53.4993C142.496 39.9103 149.673 27.0173 163.759 14.7353C158.262 31.0706 167.194 45.542 188.809 58.3753L143.181 53.4993V53.4993Z" fill="#C4C0C0"/>
<path fill-rule="evenodd" clip-rule="evenodd" d="M134.919 145.396C134.951 130.172 139.895 116.186 149.156 103.288C145.149 121.219 150.263 137.911 163.394 153.516L134.919 145.396Z" fill="#282828"/>
<path fill-rule="evenodd" clip-rule="evenodd" d="M244.519 130.95C244.486 120.747 239.542 111.373 230.282 102.73C234.288 114.747 229.174 125.933 216.044 136.393L244.519 130.95Z" fill="#282828"/>
<path fill-rule="evenodd" clip-rule="evenodd" d="M116.42 137.375C116.387 128.892 111.442 121.1 102.182 113.913C106.189 123.903 101.075 133.204 87.9449 141.899L116.42 137.375Z" fill="#282828"/>
<path fill-rule="evenodd" clip-rule="evenodd" d="M261.787 136.241C263.137 126.881 258.542 117.445 248.723 107.942C251.845 119.642 244.249 129.028 227.234 136.381L261.787 136.241V136.241Z" fill="#282828"/>
<path fill-rule="evenodd" clip-rule="evenodd" d="M137.265 134.496C135.186 124.961 126.456 117.606 111.883 112.166C119.839 122.263 114.975 134.189 98.8429 147.724L137.265 134.496Z" fill="#282828"/>
<path fill-rule="evenodd" clip-rule="evenodd" d="M292.966 143.311C292.933 134.828 273.751 115.515 264.491 108.328C271.076 118.318 276.342 140.213 260.22 148.908L292.966 143.311Z" fill="#282828"/>
<path d="M161.961 267.392C179.503 267.392 193.724 253.416 193.724 236.175C193.724 218.934 179.503 204.958 161.961 204.958C144.419 204.958 130.198 218.934 130.198 236.175C130.198 253.416 144.419 267.392 161.961 267.392Z" fill="white"/>
<path d="M184.762 238.158C184.762 232.092 178.825 245.716 172.751 246.462C168.606 246.969 181.938 236.425 161.968 236.179C143.136 235.946 155.15 245.837 151.168 245.774C145.024 245.677 139.173 231.968 139.173 238.158C139.173 248.36 149.377 260.919 161.968 260.919C174.557 260.919 184.762 248.36 184.762 238.158Z" fill="#282828"/>
<path d="M252.576 195.459C252.576 206.638 243.354 215.701 231.979 215.701C220.604 215.701 211.382 206.638 211.382 195.459C211.382 184.279 220.604 175.216 231.979 175.216C243.354 175.216 252.576 184.279 252.576 195.459Z" fill="url(#paint1_radial)"/>
<path fill-rule="evenodd" clip-rule="evenodd" d="M248.358 184.817C253.487 206.191 233.011 212.805 213.713 204.987C214.413 185.844 230.017 183.961 248.358 184.817Z" fill="black"/>
<path d="M241.125 195.733C242.488 195.733 243.593 194.647 243.593 193.307C243.593 191.968 242.488 190.882 241.125 190.882C239.762 190.882 238.657 191.968 238.657 193.307C238.657 194.647 239.762 195.733 241.125 195.733Z" fill="white"/>
<path d="M70.0561 189.32C69.9128 189.32 74.4365 171.453 94.8161 171.322C115.079 171.192 120.571 191.119 119.904 190.222" stroke="#3E4250" stroke-width="0.00548708" stroke-miterlimit="1.5" stroke-linecap="round" stroke-linejoin="round"/>
<path d="M207.015 188.145C206.872 188.145 210.2 170.278 230.579 170.147C250.842 170.017 256.334 190.825 255.668 189.928" stroke="#3E4250" stroke-width="0.00548708" stroke-miterlimit="1.5" stroke-linecap="round" stroke-linejoin="round"/>
<path d="M68.8882 197.291C68.8037 197.349 74.2462 219.758 95.1374 220.082C118.647 220.446 121.564 194.116 120.301 195.894" stroke="#3E4250" stroke-width="0.00548708" stroke-miterlimit="1.5" stroke-linecap="round" stroke-linejoin="round"/>
<path d="M207.784 202.502C207.508 202.371 210.615 220.908 231.349 220.5C253.248 220.07 257.724 197.764 256.258 199.133" stroke="#3E4250" stroke-width="0.00548708" stroke-miterlimit="1.5" stroke-linecap="round" stroke-linejoin="round"/>
<path fill-rule="evenodd" clip-rule="evenodd" d="M304.797 184.913C300.427 184.091 295.572 190.141 293.963 198.414C292.352 206.687 294.592 214.071 298.962 214.892C303.332 215.713 308.188 209.664 309.798 201.391C311.408 193.119 309.167 185.735 304.797 184.913V184.913Z" fill="#121212"/>
<path fill-rule="evenodd" clip-rule="evenodd" d="M177.288 57.8561C177.78 43.5759 184.291 37.5552 205.128 42.991C221.42 47.2411 255.728 67.6063 267.444 84.0769C240.804 67.3815 210.736 55.5295 177.288 57.8561V57.8561Z" fill="white"/>
<path fill-rule="evenodd" clip-rule="evenodd" d="M144.418 261.19C155.644 281.102 167.455 280.972 179.846 260.919C168.037 269.127 156.227 268.968 144.418 261.19Z" fill="#F29BB1"/>
<defs>
<radialGradient id="paint0_radial" cx="0" cy="0" r="1" gradientUnits="userSpaceOnUse" gradientTransform="translate(94.8459 195.73) rotate(-90) scale(20.2426 20.5968)">
<stop stop-color="#FFFC4E"/>
<stop offset="1" stop-color="#4E1B00"/>
</radialGradient>
<radialGradient id="paint1_radial" cx="0" cy="0" r="1" gradientUnits="userSpaceOnUse" gradientTransform="translate(231.979 195.459) rotate(-90) scale(20.2426 20.5968)">
<stop stop-color="#FFFC4E"/>
<stop offset="1" stop-color="#4E1B00"/>
</radialGradient>
</defs>
</svg>
