<svg width="134" height="41" viewBox="0 0 134 41" fill="none" xmlns="http://www.w3.org/2000/svg">
<path d="M15.683 0.754803C17.4262 -0.251601 19.5738 -0.251601 21.317 0.754802L34.183 8.18303C35.9262 9.18944 37 11.0493 37 13.0622V27.9186C37 29.9314 35.9262 31.7913 34.183 32.7977L21.317 40.226C19.5738 41.2324 17.4262 41.2324 15.683 40.226L2.81696 32.7977C1.07382 31.7913 0 29.9314 0 27.9186V13.0622C0 11.0493 1.07382 9.18944 2.81696 8.18303L15.683 0.754803Z" fill="#C4C4C4"/>
<path d="M6.07156 15.3536C4.19965 14.273 4.19966 12.5209 6.07156 11.4402L14.9697 6.30333C16.8416 5.22268 19.8766 5.22268 21.7485 6.30333L30.6467 11.4402C32.5186 12.5209 32.5186 14.273 30.6467 15.3536L21.7485 20.4905C19.8766 21.5712 16.8416 21.5712 14.9697 20.4905L6.07156 15.3536Z" fill="white"/>
<path fill-rule="evenodd" clip-rule="evenodd" d="M15.8171 6.7925L6.91891 11.9294C5.51498 12.7399 5.51498 14.054 6.91891 14.8645L15.8171 20.0014C17.221 20.8119 19.4972 20.8119 20.9011 20.0014L29.7993 14.8645C31.2032 14.054 31.2032 12.7399 29.7993 11.9294L20.9012 6.79251C19.4972 5.98202 17.221 5.98201 15.8171 6.7925ZM6.07156 11.4402C4.19966 12.5209 4.19965 14.273 6.07156 15.3536L14.9697 20.4905C16.8416 21.5712 19.8766 21.5712 21.7485 20.4905L30.6467 15.3536C32.5186 14.273 32.5186 12.5209 30.6467 11.4402L21.7485 6.30333C19.8766 5.22268 16.8416 5.22268 14.9697 6.30333L6.07156 11.4402Z" fill="#282828"/>
<path d="M18.6174 34.4578C19.4956 34.4578 20.466 34.274 21.5923 33.6236L27.5105 30.2065C30.2051 28.6506 32.3896 24.8669 32.3897 21.7554L32.39 14.9215C32.3901 11.8099 30.2058 10.5488 27.5112 12.1047L21.593 15.5219C20.3475 16.241 19.2111 17.436 18.3489 18.8206C17.5008 17.5083 16.4068 16.3812 15.2125 15.6916L9.29428 12.2744C6.59968 10.7186 4.41536 11.9797 4.41548 15.0912L4.41574 21.9251C4.41586 25.0367 6.60036 28.8203 9.29497 30.3762L15.2132 33.7934C16.5302 34.5539 17.3263 34.4578 18.6174 34.4578Z" fill="#282828"/>
<path d="M53 39.2404H62.4091V13.0586H53V39.2404ZM57.7045 10.3313C60.2614 10.3313 62.3409 8.40516 62.3409 6.03584C62.3409 3.66652 60.2614 1.74039 57.7045 1.74039C55.1477 1.74039 53.0682 3.66652 53.0682 6.03584C53.0682 8.40516 55.1477 10.3313 57.7045 10.3313Z" fill="white"/>
<path d="M67.4759 39.2404H90.4531V32.0813H79.6122V31.9449L90.044 18.7858V13.0586H67.8849V20.2177H78.9304V20.354L67.4759 34.0586V39.2404Z" fill="white"/>
<path d="M95.929 39.2404H118.906V32.0813H108.065V31.9449L118.497 18.7858V13.0586H96.3381V20.2177H107.384V20.354L95.929 34.0586V39.2404Z" fill="white"/>
<path d="M124.109 39.2404H133.518V13.0586H124.109V39.2404ZM128.814 10.3313C131.371 10.3313 133.45 8.40516 133.45 6.03584C133.45 3.66652 131.371 1.74039 128.814 1.74039C126.257 1.74039 124.178 3.66652 124.178 6.03584C124.178 8.40516 126.257 10.3313 128.814 10.3313Z" fill="white"/>
</svg>
