<svg width="1600" height="500" viewBox="0 0 1600 500" fill="none" xmlns="http://www.w3.org/2000/svg">
<g clip-path="url(#clip0)">
<rect width="1600" height="500" fill="#616161"/>
<path d="M1600 17.6359C1066.66 81.3664 533.337 567.342 0 213.883V224.147C533.337 590.191 1066.66 116.809 1600 65.6613V17.6359V17.6359Z" fill="#F28C8F"/>
<path d="M1600 65.5629C1066.66 116.671 533.337 589.687 0 223.926V234.179C533.337 612.523 1066.66 152.082 1600 113.558V65.5629Z" fill="#F2B8A4"/>
<path d="M1600 113.49C1066.66 152.043 533.337 612.833 0 234.202V244.466C533.337 635.685 1066.66 187.481 1600 161.516V113.49V113.49Z" fill="#F3D2B5"/>
<path d="M1600 161.417C1066.66 187.45 533.337 636.83 0 244.584V254.877C533.337 659.742 1066.66 222.985 1600 209.567V161.417Z" fill="#558FA7"/>
<path d="M1600 209.344C1066.66 222.719 533.337 658.098 0 254.51V264.768C533.337 680.937 1066.66 258.136 1600 257.349V209.344Z" fill="#2D6072"/>
<path d="M137 499.999C157.021 421.753 237.418 261.755 396.835 264.024C396.835 447.279 602.714 497.317 721.594 499.023L735.5 498.999C731.018 499.082 726.376 499.091 721.594 499.023L137 499.999Z" fill="#90CAF9"/>
<path d="M557.24 323.019C435.379 321.287 374.305 440.285 359 500L821 502C661.896 446.41 535.852 466.542 557.24 323.019Z" fill="#B2DFDB"/>
<path d="M699.736 382.012C619.371 380.858 579.093 460.19 569 500H875C754.876 463.23 718.839 474.018 699.736 382.012Z" fill="#FFFDE7"/>
</g>
<defs>
<clipPath id="clip0">
<rect width="1600" height="500" fill="white"/>
</clipPath>
</defs>
</svg>
